<mxfile host="app.diagrams.net" modified="2024-01-15T00:54:23.752Z" agent="Mozilla/5.0 (Windows NT 10.0; Win64; x64) AppleWebKit/537.36 (KHTML, like Gecko) Chrome/120.0.0.0 Safari/537.36 Edg/120.0.0.0" etag="PzfFijpgurk8O9lggsNC" version="22.1.18" type="github">
  <diagram name="第 1 页" id="TaQp9HzhU9KANCi2xMdJ">
    <mxGraphModel dx="1039" dy="413" grid="1" gridSize="10" guides="1" tooltips="1" connect="1" arrows="1" fold="1" page="1" pageScale="1" pageWidth="827" pageHeight="1169" math="0" shadow="0">
      <root>
        <mxCell id="0" />
        <mxCell id="1" parent="0" />
        <mxCell id="1oZkK_i0dIsKqffcc_Yf-1" value="&lt;font style=&quot;font-size: 17px;&quot;&gt;个体基因编码与&lt;br&gt;种群初始化&lt;/font&gt;" style="rounded=1;whiteSpace=wrap;html=1;" vertex="1" parent="1">
          <mxGeometry x="130" y="200" width="160" height="80" as="geometry" />
        </mxCell>
        <mxCell id="1oZkK_i0dIsKqffcc_Yf-2" value="计算各个体适应度" style="rounded=0;whiteSpace=wrap;html=1;" vertex="1" parent="1">
          <mxGeometry x="132.5" y="340" width="155" height="70" as="geometry" />
        </mxCell>
        <mxCell id="1oZkK_i0dIsKqffcc_Yf-3" value="" style="endArrow=classic;html=1;rounded=0;exitX=0.5;exitY=1;exitDx=0;exitDy=0;" edge="1" parent="1" source="1oZkK_i0dIsKqffcc_Yf-1" target="1oZkK_i0dIsKqffcc_Yf-2">
          <mxGeometry width="50" height="50" relative="1" as="geometry">
            <mxPoint x="210" y="320" as="sourcePoint" />
            <mxPoint x="260" y="270" as="targetPoint" />
          </mxGeometry>
        </mxCell>
        <mxCell id="1oZkK_i0dIsKqffcc_Yf-4" value="判断是否满足终止条件" style="rhombus;whiteSpace=wrap;html=1;" vertex="1" parent="1">
          <mxGeometry x="145" y="460" width="130" height="120" as="geometry" />
        </mxCell>
        <mxCell id="1oZkK_i0dIsKqffcc_Yf-5" value="" style="endArrow=classic;html=1;rounded=0;exitX=0.5;exitY=1;exitDx=0;exitDy=0;" edge="1" parent="1">
          <mxGeometry width="50" height="50" relative="1" as="geometry">
            <mxPoint x="209.8" y="410" as="sourcePoint" />
            <mxPoint x="210" y="460" as="targetPoint" />
          </mxGeometry>
        </mxCell>
        <mxCell id="1oZkK_i0dIsKqffcc_Yf-6" value="停止迭代" style="rounded=1;whiteSpace=wrap;html=1;" vertex="1" parent="1">
          <mxGeometry x="324" y="495" width="90" height="50" as="geometry" />
        </mxCell>
        <mxCell id="1oZkK_i0dIsKqffcc_Yf-7" value="" style="endArrow=classic;html=1;rounded=0;" edge="1" parent="1">
          <mxGeometry width="50" height="50" relative="1" as="geometry">
            <mxPoint x="275" y="520" as="sourcePoint" />
            <mxPoint x="320" y="520" as="targetPoint" />
          </mxGeometry>
        </mxCell>
        <mxCell id="1oZkK_i0dIsKqffcc_Yf-8" value="是" style="edgeLabel;html=1;align=center;verticalAlign=middle;resizable=0;points=[];" vertex="1" connectable="0" parent="1oZkK_i0dIsKqffcc_Yf-7">
          <mxGeometry x="0.0119" y="1" relative="1" as="geometry">
            <mxPoint as="offset" />
          </mxGeometry>
        </mxCell>
        <mxCell id="1oZkK_i0dIsKqffcc_Yf-9" value="选择运算" style="rounded=0;whiteSpace=wrap;html=1;" vertex="1" parent="1">
          <mxGeometry x="132.5" y="630" width="155" height="70" as="geometry" />
        </mxCell>
        <mxCell id="1oZkK_i0dIsKqffcc_Yf-10" value="" style="endArrow=classic;html=1;rounded=0;entryX=0.5;entryY=0;entryDx=0;entryDy=0;exitX=0.5;exitY=1;exitDx=0;exitDy=0;" edge="1" parent="1" source="1oZkK_i0dIsKqffcc_Yf-4" target="1oZkK_i0dIsKqffcc_Yf-9">
          <mxGeometry width="50" height="50" relative="1" as="geometry">
            <mxPoint x="220" y="595" as="sourcePoint" />
            <mxPoint x="270" y="545" as="targetPoint" />
          </mxGeometry>
        </mxCell>
        <mxCell id="1oZkK_i0dIsKqffcc_Yf-11" value="否" style="edgeLabel;html=1;align=center;verticalAlign=middle;resizable=0;points=[];" vertex="1" connectable="0" parent="1oZkK_i0dIsKqffcc_Yf-10">
          <mxGeometry x="-0.3229" y="-1" relative="1" as="geometry">
            <mxPoint as="offset" />
          </mxGeometry>
        </mxCell>
        <mxCell id="1oZkK_i0dIsKqffcc_Yf-12" value="交叉运算" style="rounded=0;whiteSpace=wrap;html=1;" vertex="1" parent="1">
          <mxGeometry x="132.5" y="750" width="155" height="70" as="geometry" />
        </mxCell>
        <mxCell id="1oZkK_i0dIsKqffcc_Yf-13" value="变异运算" style="rounded=0;whiteSpace=wrap;html=1;" vertex="1" parent="1">
          <mxGeometry x="132.5" y="870" width="155" height="70" as="geometry" />
        </mxCell>
        <mxCell id="1oZkK_i0dIsKqffcc_Yf-14" value="" style="endArrow=classic;html=1;rounded=0;entryX=0.5;entryY=0;entryDx=0;entryDy=0;exitX=0.5;exitY=1;exitDx=0;exitDy=0;" edge="1" parent="1">
          <mxGeometry width="50" height="50" relative="1" as="geometry">
            <mxPoint x="209.8" y="700" as="sourcePoint" />
            <mxPoint x="209.8" y="750" as="targetPoint" />
          </mxGeometry>
        </mxCell>
        <mxCell id="1oZkK_i0dIsKqffcc_Yf-16" value="" style="endArrow=classic;html=1;rounded=0;entryX=0.5;entryY=0;entryDx=0;entryDy=0;exitX=0.5;exitY=1;exitDx=0;exitDy=0;" edge="1" parent="1">
          <mxGeometry width="50" height="50" relative="1" as="geometry">
            <mxPoint x="209.8" y="820" as="sourcePoint" />
            <mxPoint x="209.8" y="870" as="targetPoint" />
          </mxGeometry>
        </mxCell>
        <mxCell id="1oZkK_i0dIsKqffcc_Yf-18" value="" style="endArrow=none;html=1;rounded=0;" edge="1" parent="1">
          <mxGeometry width="50" height="50" relative="1" as="geometry">
            <mxPoint x="210" y="1000" as="sourcePoint" />
            <mxPoint x="210" y="940" as="targetPoint" />
          </mxGeometry>
        </mxCell>
        <mxCell id="1oZkK_i0dIsKqffcc_Yf-19" value="" style="endArrow=none;html=1;rounded=0;" edge="1" parent="1">
          <mxGeometry width="50" height="50" relative="1" as="geometry">
            <mxPoint x="40" y="1000" as="sourcePoint" />
            <mxPoint x="210" y="1000" as="targetPoint" />
          </mxGeometry>
        </mxCell>
        <mxCell id="1oZkK_i0dIsKqffcc_Yf-20" value="" style="endArrow=none;html=1;rounded=0;" edge="1" parent="1">
          <mxGeometry width="50" height="50" relative="1" as="geometry">
            <mxPoint x="40" y="1000" as="sourcePoint" />
            <mxPoint x="40" y="370" as="targetPoint" />
          </mxGeometry>
        </mxCell>
        <mxCell id="1oZkK_i0dIsKqffcc_Yf-21" value="" style="endArrow=classic;html=1;rounded=0;" edge="1" parent="1">
          <mxGeometry width="50" height="50" relative="1" as="geometry">
            <mxPoint x="40" y="370" as="sourcePoint" />
            <mxPoint x="130" y="370" as="targetPoint" />
          </mxGeometry>
        </mxCell>
      </root>
    </mxGraphModel>
  </diagram>
</mxfile>
